<svg width="196" height="47" viewBox="0 0 196 47" fill="none" xmlns="http://www.w3.org/2000/svg">
<path d="M11.76 43.2837V37.969C11.76 35.8599 13.1938 34.627 15.68 34.627V36.1417C14.3646 36.1417 13.5622 36.8286 13.5622 38.1275V43.2837H11.76ZM30.234 43.2837C27.7051 43.2837 25.872 41.4548 25.872 38.9469C25.872 36.4389 27.7051 34.627 30.234 34.627C32.4629 34.627 34.246 36.1504 34.496 38.2339H32.7629C32.5247 37.0059 31.4629 36.124 30.234 36.1334C28.705 36.1334 27.6051 37.3216 27.6051 38.9469C27.6051 40.5721 28.705 41.7603 30.234 41.7603C31.4756 41.7761 32.5491 40.8814 32.7795 39.6385H34.496C34.246 41.7603 32.4629 43.2837 30.234 43.2837ZM43.904 34.627V42.7745C43.904 44.9609 42.3586 46.4269 40.0708 46.4269C39.1115 46.4751 38.1718 46.1508 37.4592 45.5256C36.7465 44.9004 36.3195 44.0258 36.2724 43.0946H37.9177C37.9232 43.6213 38.1475 44.1235 38.5397 44.4875C38.932 44.8515 39.459 45.0465 40.0014 45.0283C41.3037 45.0283 42.1155 44.1857 42.1155 42.8587V41.3042C41.5356 42.2033 40.5029 42.7309 39.411 42.686C37.4879 42.686 36.064 41.3379 36.064 39.3368V34.627H37.8308V39.1009C37.8308 40.4322 38.6643 41.3042 39.9493 41.3042C41.2342 41.3042 42.1198 40.4322 42.1198 39.1009V34.627H43.904ZM49.8402 43.2837C47.315 43.2837 45.472 41.4648 45.472 38.9532C45.472 36.4416 47.315 34.627 49.8402 34.627C52.07 34.627 53.8464 36.1526 54.096 38.2393H52.3695C52.1299 37.0088 51.0683 36.1258 49.8402 36.1356C48.3134 36.1356 47.2151 37.3256 47.2151 38.9532C47.2151 40.5809 48.3134 41.7708 49.8402 41.7708C51.081 41.787 52.1542 40.8912 52.3862 39.6459H54.096C53.8464 41.7581 52.07 43.2837 49.8402 43.2837ZM57.232 31.4791V43.2837H55.664V31.4791H57.232ZM69.776 43.2837V37.969C69.776 35.8599 71.2126 34.627 73.696 34.627V36.1417C72.382 36.1417 71.5805 36.8286 71.5805 38.1275V43.2837H69.776ZM83.5563 43.2837C81.0311 43.2837 79.184 41.4675 79.184 38.9596C79.184 36.4517 81.0311 34.627 83.5563 34.627C85.782 34.627 87.5626 36.1504 87.808 38.2339H86.0815C85.8422 37.0069 84.7829 36.1256 83.5563 36.1334C82.0254 36.1334 80.9313 37.3216 80.9313 38.9469C80.9313 40.5721 82.0254 41.7603 83.5563 41.7603C84.7956 41.7744 85.8665 40.8804 86.0982 39.6385H87.808C87.5626 41.7603 85.782 43.2837 83.5563 43.2837ZM90.944 31.4791L89.7371 35.4139H88.592L89.3481 31.4791H90.944ZM107.199 37.1683H105.529C105.494 36.4204 104.815 35.8934 103.828 35.8934C102.923 35.8934 102.262 36.3184 102.262 36.9643C102.262 37.8143 103.045 37.9673 104.037 38.15C105.25 38.371 107.408 38.728 107.408 40.7339C107.408 42.2425 105.946 43.2837 103.897 43.2837C101.848 43.2837 100.369 42.2128 100.352 40.6701H102.092C102.127 41.4648 102.893 41.9918 103.95 41.9918C104.941 41.9918 105.655 41.5328 105.655 40.8401C105.655 39.9902 104.785 39.8372 103.832 39.6672C102.527 39.4802 100.513 39.1062 100.513 37.1386C100.513 35.6257 101.866 34.627 103.867 34.627C105.868 34.627 107.199 35.6597 107.199 37.1683ZM113.68 36.5736H111.684V43.2837H109.828V36.5736H108.192V35.1711H109.828V33.053H111.684V35.1711H113.68V36.5736ZM128.576 38.9694C128.576 41.4104 126.876 43.2149 124.481 43.2149C123.391 43.2395 122.347 42.7627 121.64 41.9163V46.4316H119.952V38.9188C119.952 36.4272 121.755 34.627 124.266 34.627C126.777 34.627 128.576 36.4272 128.576 38.9694ZM126.843 38.9188C126.843 37.2872 125.751 36.1236 124.25 36.1236C122.748 36.1236 121.64 37.2872 121.64 38.9188C121.64 40.5504 122.727 41.714 124.25 41.714C125.772 41.714 126.843 40.5377 126.843 38.9188ZM130.144 43.2837V37.969C130.144 35.8599 131.578 34.627 134.064 34.627V36.1417C132.749 36.1417 131.946 36.8286 131.946 38.1275V43.2837H130.144ZM142.688 38.9532C142.688 41.4648 140.883 43.2837 138.386 43.2837C135.89 43.2837 134.064 41.4648 134.064 38.9532C134.064 36.4416 135.886 34.627 138.386 34.627C140.887 34.627 142.688 36.4416 142.688 38.9532ZM135.787 38.9532C135.787 40.6021 136.873 41.7708 138.37 41.7708C139.867 41.7708 140.965 40.6021 140.965 38.9532C140.965 37.3043 139.879 36.1356 138.37 36.1356C136.861 36.1356 135.787 37.3468 135.787 38.9532ZM148.96 36.5736H146.964V43.2837H145.108V36.5736H143.472V35.1711H145.108V33.053H146.964V35.1711H148.96V36.5736ZM154.277 33.84H152.88L154.995 31.4791H156.8L154.277 33.84ZM168.56 38.6879V42.4288C168.56 44.7524 166.829 46.4316 164.429 46.4316C162.331 46.4316 160.633 45.0516 160.385 43.1438H161.951C162.196 44.2796 163.208 45.0802 164.363 45.0516C165.036 45.0704 165.688 44.8083 166.163 44.3274C166.637 43.8464 166.894 43.1895 166.87 42.512V41.4645C166.127 42.2969 165.062 42.7639 163.95 42.7447C162.872 42.7826 161.827 42.3672 161.066 41.5983C160.305 40.8294 159.897 39.7764 159.939 38.6921C159.939 36.3353 161.74 34.627 164.247 34.627C166.755 34.627 168.56 36.3312 168.56 38.6879ZM166.879 38.6879C166.933 37.7187 166.45 36.7987 165.624 36.2976C164.797 35.7965 163.763 35.7965 162.937 36.2976C162.111 36.7987 161.628 37.7187 161.682 38.6879C161.682 40.2841 162.769 41.4271 164.272 41.4271C164.988 41.4345 165.674 41.1413 166.165 40.6183C166.657 40.0952 166.909 39.3896 166.862 38.6713L166.879 38.6879ZM180.32 43.2837V37.969C180.32 35.8599 181.757 34.627 184.24 34.627V36.1417C182.926 36.1417 182.12 36.8286 182.12 38.1275V43.2837H180.32Z" fill="#002E50"/>
<path d="M64.288 11.8047C64.288 15.7164 61.1289 18.8874 57.232 18.8874C53.3351 18.8874 50.176 15.7164 50.176 11.8047C50.176 7.89296 53.3351 4.72188 57.232 4.72188C61.127 4.7266 64.2833 7.89491 64.288 11.8047Z" fill="#FFDA26"/>
<path d="M77.444 23.6093C74.2908 23.6093 71.8225 22.4692 69.893 20.1208L69.776 19.9799L72.9543 16.5256L73.1005 16.675C73.714 17.3082 74.4181 17.8424 75.1887 18.2591C75.9728 18.7161 76.8516 18.9766 77.7531 19.0192C78.4746 19.0513 79.1859 18.8364 79.7745 18.4086C80.2626 18.0758 80.5629 17.5221 80.5806 16.9227C80.5806 15.9107 79.7035 14.9756 77.9034 14.0704L75.9572 13.0968C72.3529 11.2864 70.5278 9.0063 70.5278 6.31627C70.5144 4.59606 71.2581 2.96082 72.5534 1.86278C73.9912 0.596488 75.8442 -0.0670304 77.7406 0.00538276C79.1581 -0.00067929 80.5581 0.325032 81.8335 0.957568C82.9838 1.53049 84.0017 2.34703 84.8197 3.35297L84.9408 3.50242L81.7416 6.69629L81.5996 6.56393C80.213 5.28296 78.9643 4.65956 77.7865 4.65956C77.1855 4.62746 76.5901 4.79198 76.0867 5.12925C75.7194 5.37249 75.4789 5.77198 75.4319 6.21678C75.3849 6.66159 75.5365 7.10436 75.8445 7.42218C75.9405 7.52892 76.2287 7.84916 77.657 8.5537L79.7703 9.59555C81.9463 10.6715 83.4581 11.7689 84.26 12.8705C85.0613 13.982 85.4812 15.3329 85.4545 16.7134C85.4959 18.5991 84.7006 20.4026 83.2911 21.6195C81.8544 22.9432 79.8873 23.6093 77.444 23.6093ZM117.428 23.6093C114.275 23.6093 111.807 22.4693 109.877 20.121L109.76 19.9801L112.922 16.5259L113.068 16.6753C113.681 17.3085 114.385 17.8426 115.156 18.2594C115.94 18.7164 116.819 18.9768 117.72 19.0194C118.442 19.0515 119.153 18.8366 119.742 18.4088C120.23 18.0761 120.53 17.5224 120.548 16.923C120.548 15.9111 119.671 14.976 117.871 14.0708L115.925 13.0973C112.32 11.287 110.495 9.007 110.495 6.3171C110.479 4.59908 111.218 2.96429 112.508 1.86381C113.953 0.590416 115.818 -0.0735514 117.725 0.00650443C119.142 0.000442664 120.542 0.326138 121.818 0.958644C122.968 1.53154 123.986 2.34804 124.804 3.35393L124.925 3.50337L121.726 6.6971L121.584 6.56474C120.197 5.28383 118.948 4.66046 117.771 4.66046C117.169 4.62746 116.574 4.79204 116.071 5.13012C115.703 5.37336 115.463 5.77283 115.416 6.21761C115.369 6.66239 115.52 7.10515 115.828 7.42294C115.925 7.52969 116.213 7.84991 117.641 8.55441L119.754 9.59622C121.93 10.6722 123.442 11.7695 124.244 12.871C125.045 13.9825 125.465 15.3333 125.439 16.7138C125.478 18.5989 124.683 20.4016 123.275 21.6196C121.834 22.9432 119.867 23.6093 117.428 23.6093ZM99.6749 22.8223H94.7826V12.1211C89.4294 10.9819 85.5692 6.35513 85.456 0.94209V0.787H90.1575V0.933706C90.2893 4.69174 93.4087 7.67091 97.2118 7.67091C101.015 7.67091 104.134 4.69174 104.266 0.933706V0.787H108.976V0.94209C108.863 6.35513 105.003 10.9819 99.6494 12.1211L99.6749 22.8223ZM140.448 22.8223H140.249C137.323 22.8223 135.971 22.1146 134.946 21.3514C133.561 20.2939 132.551 18.7957 132.073 17.088C131.66 15.8089 131.474 13.4512 131.474 10.049V4.66425H126.224V2.28886e-05H142.688V4.66425H136.157V11.4602C136.157 13.5493 136.293 14.9605 136.57 15.7791C136.847 16.5977 137.732 18.3158 140.22 18.0472L140.439 18.0217L140.448 22.8223ZM57.2364 2.36525e-05C52.4793 -0.00168867 48.1896 2.87375 46.3684 7.28516C44.5471 11.6966 45.5529 16.7749 48.9168 20.1515C52.2806 23.5281 57.3397 24.5378 61.7345 22.7096C66.1292 20.8814 68.9937 16.5755 68.992 11.8002C68.9851 5.28607 63.726 0.00702768 57.2364 2.36525e-05ZM57.2364 18.8016C53.3843 18.8016 50.2616 15.667 50.2616 11.8002C50.2616 7.93352 53.3843 4.7989 57.2364 4.7989C61.0886 4.7989 64.2113 7.93352 64.2113 11.8002C64.209 15.666 61.0876 18.7993 57.2364 18.8016Z" fill="#002E50"/>
<path d="M37.4997 23.6093C31.0425 23.4873 25.8719 18.2381 25.8719 11.8046C25.8719 5.37118 31.0425 0.121965 37.4997 2.18072e-05C40.7634 -0.012204 43.885 1.32926 46.1156 3.70266L46.2559 3.85093L42.7517 7.1468L42.6114 6.99853C41.2907 5.59139 39.442 4.79489 37.5082 4.79987C34.3007 4.7965 31.4977 6.95635 30.6948 10.0498C29.892 13.1432 31.293 16.3857 34.1003 17.9313C36.9075 19.4769 40.409 18.9336 42.6114 16.6107L42.7517 16.4625L46.2559 19.7711L46.1156 19.9193C43.8825 22.2876 40.7614 23.6243 37.4997 23.6093ZM187.138 0.000380094C185.054 -0.0159247 183.041 0.740264 181.5 2.11801C179.958 0.737581 177.941 -0.018862 175.854 0.000380094C171.39 0.000380094 167.776 3.29586 167.776 7.68567V22.8223H172.682V7.68567C172.745 6.01032 174.145 4.68384 175.852 4.68384C177.558 4.68384 178.959 6.01032 179.021 7.68567V22.8223H183.953V7.68567C184.041 6.02745 185.435 4.72699 187.125 4.72699C188.815 4.72699 190.209 6.02745 190.297 7.68567V22.8223H195.216V7.68567C195.216 3.29586 191.598 0.000380094 187.138 0.000380094Z" fill="#002E50"/>
<path d="M11.76 18.8874C15.6569 18.8874 18.816 15.7164 18.816 11.8047C18.816 7.89296 15.6569 4.72188 11.76 4.72188C7.86306 4.72188 4.70398 7.89296 4.70398 11.8047C4.70398 15.7164 7.86306 18.8874 11.76 18.8874Z" fill="#00DABE"/>
<path d="M23.52 11.7995C23.52 11.4465 23.5031 11.0991 23.4693 10.7574C23.4693 10.6727 23.4693 10.588 23.4482 10.5033C23.4145 10.228 23.3723 9.96111 23.3258 9.69001C23.2963 9.53751 23.2667 9.38502 23.233 9.23253C22.1804 4.48439 18.3308 0.871936 13.5394 0.136173C8.74797 -0.599589 3.998 1.69232 1.57869 5.90731L5.71115 8.30062C7.04802 5.96631 9.60021 4.60797 12.2758 4.80672C14.9514 5.00548 17.2765 6.72613 18.2563 9.23253H0.287035C0.098979 10.0752 0.00273565 10.9359 0 11.7995C0 12.1384 0.0211055 12.473 0.0506533 12.8034C0.481241 17.944 4.19133 22.207 9.2093 23.3271C14.2273 24.4472 19.3883 22.1644 21.9497 17.6917L17.8173 15.2984C16.4177 17.7331 13.7029 19.092 10.9228 18.7494C8.14273 18.4068 5.83626 16.4291 5.06533 13.7268H23.3512C23.4608 13.0902 23.5173 12.4455 23.52 11.7995Z" fill="#002E50"/>
<path d="M153.664 18.8874C157.561 18.8874 160.72 15.7164 160.72 11.8047C160.72 7.89296 157.561 4.72188 153.664 4.72188C149.767 4.72188 146.608 7.89296 146.608 11.8047C146.608 15.7164 149.767 18.8874 153.664 18.8874Z" fill="#00E2FF"/>
<path d="M165.424 11.8059C165.424 11.4541 165.403 11.1066 165.369 10.7633C165.369 10.6785 165.369 10.5938 165.348 10.509C165.318 10.2335 165.272 9.96653 165.226 9.69528C165.196 9.5427 165.171 9.39013 165.137 9.23755C164.085 4.48683 160.236 0.87241 155.445 0.136247C150.655 -0.599916 145.905 1.69324 143.487 5.91053L147.618 8.30513C148.954 5.96901 151.505 4.60928 154.18 4.80819C156.855 5.00711 159.179 6.7294 160.157 9.23755H142.191C142.003 10.0807 141.907 10.9419 141.904 11.8059C141.904 12.145 141.925 12.4798 141.955 12.8104C142.39 17.9481 146.098 22.2068 151.11 23.3268C156.122 24.4468 161.277 22.1688 163.841 17.7013L159.71 15.3067C158.312 17.7485 155.595 19.1126 152.811 18.7695C150.028 18.4265 147.719 16.4429 146.952 13.7343H165.251C165.362 13.0975 165.42 12.4524 165.424 11.8059ZM20.7863 34.627C18.2858 34.627 16.464 36.4389 16.464 38.9466C16.464 41.4544 18.2858 43.2832 20.7863 43.2832C22.5086 43.309 24.0798 42.2722 24.7795 40.6482H22.9947C22.3761 41.5893 21.261 42.0423 20.1866 41.7888C19.1121 41.5354 18.2986 40.6275 18.1378 39.5025H25.0386C25.0714 39.3291 25.0879 39.1529 25.088 38.9763C25.0715 36.4388 23.2826 34.627 20.7863 34.627ZM18.1871 38.1489C18.4574 36.8888 19.5522 36.0008 20.8027 36.0273C22.0663 35.9899 23.1799 36.8778 23.4635 38.1489H18.1871ZM63.9021 34.627C61.4041 34.627 59.584 36.4389 59.584 38.9466C59.584 41.4544 61.4041 43.2832 63.9021 43.2832C65.6229 43.309 67.1926 42.2722 67.8916 40.6482H66.1044C65.4863 41.5893 64.3723 42.0423 63.2989 41.7888C62.2255 41.5354 61.4127 40.6275 61.2521 39.5025H68.1587C68.1914 39.3291 68.2079 39.1529 68.208 38.9763C68.1833 36.4388 66.3961 34.627 63.9021 34.627ZM61.3055 38.1489C61.5755 36.8888 62.6692 36.0008 63.9186 36.0273C65.181 35.9899 66.2935 36.8778 66.5769 38.1489H61.3055ZM95.2663 34.627C92.7699 34.627 90.944 36.4389 90.944 38.9466C90.944 41.4544 92.7699 43.2832 95.2663 43.2832C96.9886 43.309 98.5598 42.2722 99.2595 40.6482H97.4747C96.8575 41.5906 95.7424 42.0446 94.6678 41.7909C93.5933 41.5372 92.7805 40.628 92.6219 39.5025H99.5186C99.5513 39.3291 99.5679 39.1529 99.568 38.9763C99.5515 36.4388 97.7626 34.627 95.2663 34.627ZM92.6713 38.1489C92.9383 36.8885 94.0326 35.9995 95.2827 36.0273C96.5463 35.9899 97.6599 36.8778 97.9435 38.1489H92.6713ZM154.062 34.627C151.566 34.627 149.744 36.4388 149.744 38.9466C149.744 41.4544 151.566 43.2832 154.062 43.2832C155.786 43.3096 157.358 42.2729 158.06 40.6482H156.275C155.656 41.5893 154.541 42.0423 153.467 41.7888C152.392 41.5354 151.579 40.6275 151.418 39.5025H158.319C158.351 39.3291 158.368 39.1529 158.368 38.9763C158.352 36.4388 156.558 34.627 154.062 34.627ZM151.467 38.1489C151.783 36.9143 152.866 36.0543 154.103 36.0543C155.341 36.0543 156.423 36.9143 156.739 38.1489H151.467ZM174.446 34.627C171.95 34.627 170.128 36.4388 170.128 38.9466C170.128 41.4544 171.95 43.2832 174.446 43.2832C176.17 43.3096 177.742 42.2729 178.444 40.6482H176.659C176.04 41.5893 174.925 42.0423 173.851 41.7888C172.776 41.5354 171.963 40.6275 171.802 39.5025H178.703C178.735 39.3291 178.752 39.1529 178.752 38.9763C178.736 36.4388 176.942 34.627 174.446 34.627ZM171.851 38.1489C172.167 36.9143 173.25 36.0543 174.487 36.0543C175.725 36.0543 176.807 36.9143 177.123 38.1489H171.851Z" fill="#002E50"/>
<path d="M90.16 2.2888e-05V0.150968C90.2919 4.01757 93.412 7.08281 97.216 7.08281C101.02 7.08281 104.14 4.01757 104.272 0.150968V2.2888e-05H90.16Z" fill="#AFF52D"/>
</svg>
